<svg role="img" viewBox="0 0 24 24" xmlns="http://www.w3.org/2000/svg"><title>Viber</title><path d="M11.4 0C9.473.028 5.333.344 3.02 2.467 1.302 4.187.696 6.7.633 9.817.57 12.933.488 18.776 6.12 20.36l-.001 2.416s-.037.977.61 1.177c.777.242 1.234-.5 1.98-1.302.407-.44.972-1.084 1.397-1.58 3.85.326 6.812-.416 7.15-.525.776-.252 5.176-.816 5.892-6.657.74-6.02-.36-9.83-2.34-11.546-.596-.55-3.006-2.3-8.375-2.323 0 0-.395-.025-1.037-.017zm.058 1.693c.545-.004.88.017.88.017 4.542.02 6.717 1.388 7.222 1.846 1.675 1.435 2.53 4.868 1.906 9.897-.604 4.88-4.174 5.186-4.832 5.397-.28.09-2.882.737-6.153.524 0 0-2.436 2.94-3.197 3.704-.12.12-.26.167-.352.144-.13-.033-.166-.188-.165-.414l.02-4.018c-4.762-1.32-4.485-6.292-4.43-8.895.054-2.604.543-4.738 1.996-6.173 1.96-1.773 5.474-2.018 7.11-2.03zm.38 2.602a.303.303 0 0 0-.004.607c1.624.01 2.946.537 4.028 1.592 1.073 1.046 1.62 2.468 1.633 4.334a.304.304 0 0 0 .607-.004c-.014-1.984-.618-3.596-1.816-4.764-1.19-1.16-2.692-1.753-4.447-1.765zm-3.96.695c-.19-.032-.4.005-.616.117-.43.247-.816.562-1.146.932-.267.323-.42.638-.46.948-.008.046-.01.093-.007.14 0 .136.022.27.065.4.135.48.473 1.276 1.205 2.604.42.768.903 1.5 1.446 2.186.27.344.56.673.87.984l.132.132c.31.308.64.6.984.87.686.543 1.418 1.027 2.186 1.447 1.328.733 2.126 1.07 2.604 1.206.13.042.265.064.402.063.046.002.092 0 .138-.008.31-.036.627-.19.948-.46.37-.33.683-.72.93-1.148.225-.432.15-.842-.18-1.12-.004 0-.698-.58-1.037-.83-.36-.255-.73-.492-1.113-.71-.51-.285-1.032-.106-1.248.174l-.447.564c-.23.283-.657.246-.657.246-3.12-.796-3.955-3.955-3.955-3.955s-.037-.426.248-.656l.563-.448c.277-.215.456-.737.17-1.248-.217-.383-.454-.756-.71-1.115-.25-.34-.826-1.033-.83-1.035-.137-.165-.31-.265-.502-.297z"/></svg>
